<mxfile host="app.diagrams.net" agent="Mozilla/5.0 (Windows NT 10.0; Win64; x64; rv:130.0) Gecko/20100101 Firefox/130.0" version="24.7.17">
  <diagram name="Page-1" id="UJEIOvumHGX8HuSwUBZJ">
    <mxGraphModel>
      <root>
        <mxCell id="0" />
        <mxCell id="1" parent="0" />
        <mxCell id="2" value="2. Back-end" style="whiteSpace=wrap;strokeWidth=2;verticalAlign=top;" vertex="1" parent="1">
          <mxGeometry x="8" y="8" width="2627" height="430" as="geometry" />
        </mxCell>
        <mxCell id="3" value="Správa získaných údajov" style="whiteSpace=wrap;strokeWidth=2;verticalAlign=top;" vertex="1" parent="2">
          <mxGeometry x="43" y="282" width="824" height="119" as="geometry" />
        </mxCell>
        <mxCell id="4" value="Záznam o žiadosti" style="whiteSpace=wrap;strokeWidth=2;" vertex="1" parent="3">
          <mxGeometry x="58" y="43" width="189" height="49" as="geometry" />
        </mxCell>
        <mxCell id="5" value="Logovanie dát" style="rounded=1;arcSize=40;strokeWidth=2" vertex="1" parent="3">
          <mxGeometry x="347" y="43" width="130" height="49" as="geometry" />
        </mxCell>
        <mxCell id="6" value="Monitorovanie výsledkov" style="rounded=1;arcSize=40;strokeWidth=2" vertex="1" parent="3">
          <mxGeometry x="577" y="43" width="205" height="49" as="geometry" />
        </mxCell>
        <mxCell id="7" value="" style="curved=1;startArrow=none;endArrow=block;exitX=1;exitY=0.5;entryX=0;entryY=0.5;" edge="1" parent="3" source="4" target="5">
          <mxGeometry relative="1" as="geometry">
            <Array as="points" />
          </mxGeometry>
        </mxCell>
        <mxCell id="8" value="" style="curved=1;startArrow=none;endArrow=block;exitX=1;exitY=0.5;entryX=0;entryY=0.5;" edge="1" parent="3" source="5" target="6">
          <mxGeometry relative="1" as="geometry">
            <Array as="points" />
          </mxGeometry>
        </mxCell>
        <mxCell id="9" value="API Gateway" style="whiteSpace=wrap;strokeWidth=2;" vertex="1" parent="2">
          <mxGeometry x="925" y="46" width="150" height="49" as="geometry" />
        </mxCell>
        <mxCell id="10" value="API" style="ellipse;aspect=fixed;strokeWidth=2;whiteSpace=wrap;" vertex="1" parent="2">
          <mxGeometry x="981" y="169" width="38" height="38" as="geometry" />
        </mxCell>
        <mxCell id="11" value="Databázový systém" style="rounded=1;arcSize=40;strokeWidth=2" vertex="1" parent="2">
          <mxGeometry x="917" y="317" width="166" height="49" as="geometry" />
        </mxCell>
        <mxCell id="12" value="Spracovanie žiadosti" style="whiteSpace=wrap;strokeWidth=2;verticalAlign=top;" vertex="1" parent="2">
          <mxGeometry x="1133" y="282" width="1467" height="119" as="geometry" />
        </mxCell>
        <mxCell id="13" value="Užívateľská autentifikácia" style="whiteSpace=wrap;strokeWidth=2;" vertex="1" parent="12">
          <mxGeometry x="58" y="43" width="246" height="49" as="geometry" />
        </mxCell>
        <mxCell id="14" value="Validácia žiadosti" style="rounded=1;arcSize=40;strokeWidth=2" vertex="1" parent="12">
          <mxGeometry x="404" y="43" width="154" height="49" as="geometry" />
        </mxCell>
        <mxCell id="15" value="Rozhodovací systém" style="rounded=1;arcSize=40;strokeWidth=2" vertex="1" parent="12">
          <mxGeometry x="658" y="43" width="172" height="49" as="geometry" />
        </mxCell>
        <mxCell id="16" value="Spracovanie podľa pravidiel" style="rounded=1;arcSize=40;strokeWidth=2" vertex="1" parent="12">
          <mxGeometry x="931" y="43" width="228" height="49" as="geometry" />
        </mxCell>
        <mxCell id="17" value="Odoslanie výsledku" style="rounded=1;arcSize=40;strokeWidth=2" vertex="1" parent="12">
          <mxGeometry x="1259" y="43" width="166" height="49" as="geometry" />
        </mxCell>
        <mxCell id="18" value="" style="curved=1;startArrow=none;endArrow=block;exitX=1;exitY=0.5;entryX=0;entryY=0.5;" edge="1" parent="12" source="13" target="14">
          <mxGeometry relative="1" as="geometry">
            <Array as="points" />
          </mxGeometry>
        </mxCell>
        <mxCell id="19" value="" style="curved=1;startArrow=none;endArrow=block;exitX=1;exitY=0.5;entryX=0;entryY=0.5;" edge="1" parent="12" source="14" target="15">
          <mxGeometry relative="1" as="geometry">
            <Array as="points" />
          </mxGeometry>
        </mxCell>
        <mxCell id="20" value="" style="curved=1;startArrow=none;endArrow=block;exitX=1;exitY=0.5;entryX=0;entryY=0.5;" edge="1" parent="12" source="15" target="16">
          <mxGeometry relative="1" as="geometry">
            <Array as="points" />
          </mxGeometry>
        </mxCell>
        <mxCell id="21" value="" style="curved=1;startArrow=none;endArrow=block;exitX=1;exitY=0.5;entryX=0;entryY=0.5;" edge="1" parent="12" source="16" target="17">
          <mxGeometry relative="1" as="geometry">
            <Array as="points" />
          </mxGeometry>
        </mxCell>
        <mxCell id="22" value="" style="curved=1;startArrow=none;endArrow=block;exitX=0.5;exitY=0.98;entryX=0.51;entryY=0;" edge="1" parent="2" source="9" target="10">
          <mxGeometry relative="1" as="geometry">
            <Array as="points" />
          </mxGeometry>
        </mxCell>
        <mxCell id="23" value="" style="curved=1;startArrow=none;endArrow=block;exitX=0.51;exitY=1;entryX=0.5;entryY=0;" edge="1" parent="2" source="10" target="11">
          <mxGeometry relative="1" as="geometry">
            <Array as="points" />
          </mxGeometry>
        </mxCell>
        <mxCell id="24" value="1. Front-end" style="whiteSpace=wrap;strokeWidth=2;verticalAlign=top;" vertex="1" parent="1">
          <mxGeometry x="2685" y="99" width="237" height="247" as="geometry" />
        </mxCell>
        <mxCell id="25" value="Web aplikácia" style="whiteSpace=wrap;strokeWidth=2;" vertex="1" parent="24">
          <mxGeometry x="47" y="46" width="159" height="49" as="geometry" />
        </mxCell>
        <mxCell id="26" value="Požiadavka na úver" style="rounded=1;arcSize=40;strokeWidth=2" vertex="1" parent="24">
          <mxGeometry x="43" y="169" width="167" height="49" as="geometry" />
        </mxCell>
        <mxCell id="27" value="" style="curved=1;startArrow=none;endArrow=block;exitX=0.5;exitY=0.98;entryX=0.5;entryY=0;" edge="1" parent="24" source="25" target="26">
          <mxGeometry relative="1" as="geometry">
            <Array as="points" />
          </mxGeometry>
        </mxCell>
      </root>
    </mxGraphModel>
  </diagram>
</mxfile>
